<svg width="161" height="122" viewBox="0 0 161 122" fill="none" xmlns="http://www.w3.org/2000/svg">
<path fill-rule="evenodd" clip-rule="evenodd" d="M56.8223 54.4298L45.6382 57.7717C49.1646 55.9931 52.9087 54.9123 56.8223 54.4298ZM78.4264 40.2353C74.2938 41.9347 70.1332 43.4665 66.2687 45.6335C69.7222 42.5472 74.0305 41.2474 78.4264 40.2353ZM78.7214 57.599C79.8087 59.0436 78.7264 59.5671 77.7649 60.0904C74.5146 61.8621 71.3539 60.7364 68.3428 59.6307C66.148 58.8251 63.9719 57.7084 62.4881 55.7313C61.922 54.9778 61.6836 54.2213 63.0722 54.0261C66.8638 53.4939 70.6159 53.4845 74.2542 54.7505C75.9876 55.3536 77.552 56.2657 78.7214 57.599ZM67.6955 47.7482C69.9282 45.9082 72.6171 44.8897 75.2476 43.7995C86.614 39.0897 98.4155 38.1664 110.489 39.211C118.554 39.9092 126.465 41.3746 134.338 43.1243C135.056 43.2833 135.776 43.4731 136.513 43.242C137.341 42.9818 137.768 42.5824 136.816 41.9371C136.583 41.7776 136.135 41.7995 136.453 41.3682C137.551 39.8799 136.415 39.1366 135.479 38.3877C133.722 36.9816 131.531 36.4744 129.468 35.7841C123.689 33.8491 117.829 32.1331 111.788 31.2075C106.179 30.3486 100.501 30.3178 94.8244 30.4469C91.2106 30.5292 87.5354 30.6632 84.1775 31.985C81.9468 32.8632 79.6153 32.8484 77.4234 33.6842C73.2217 35.2866 69.053 36.9274 65.2706 39.4334C62.1576 41.4963 59.7642 44.1928 58.2481 47.6166C57.7487 48.7456 56.967 49.3807 55.8341 49.6715C52.7813 50.4561 49.7433 51.3414 46.7415 52.2602C41.8574 53.7541 37.2233 56.0179 32.7041 58.4458C25.4962 62.318 18.764 66.8603 13.2038 72.9883C9.93577 76.5899 6.94429 80.352 6.18944 85.3793C5.99063 86.7028 6.04465 87.9599 6.90734 89.0643C7.27859 89.5407 7.70263 89.7946 8.3299 89.6425C9.07103 89.462 8.82817 89.0253 8.82133 88.4657C8.77321 84.628 11.3799 82.1793 13.6785 79.6087C20.0128 72.5245 27.9437 67.7021 36.288 63.4827C42.6734 60.254 49.3041 57.6796 56.2185 55.8853C56.7677 55.7428 57.3402 55.2937 57.571 56.3528C58.3749 60.0427 60.6495 62.734 63.6691 64.7528C68.3297 67.8694 73.3695 69.4567 78.9493 67.3415C81.9477 66.205 83.0128 64.1699 82.9252 60.9792C82.7035 52.8503 76.4403 48.5837 69.6829 48.2696C69.0776 48.2423 68.4729 48.2145 67.8691 48.1869C67.8108 48.0404 67.7535 47.8941 67.6955 47.7482Z" fill="#FFA849"/>
<path fill-rule="evenodd" clip-rule="evenodd" d="M143.048 48.9643C146.608 47.7285 150.253 47.003 154.02 47.0269C150.363 47.6727 146.705 48.3181 143.048 48.9643ZM140.256 32.9372C142.553 35.9345 145.324 38.4791 147.989 41.1268C148.387 41.5224 149.065 41.7722 148.786 42.5848C148.517 43.3652 147.817 43.2935 147.273 43.3264C144.308 43.5081 141.55 44.5538 138.706 45.2805C136.91 45.7389 135.016 45.8608 133.184 46.3882C130.363 47.2012 127.481 47.8032 124.61 48.42C123.155 48.7328 121.901 49.7147 120.257 49.4699C118.645 49.2301 117.843 50.2618 117.835 52.6676C117.83 53.8956 118.364 55.1308 119.909 55.1424C121.179 55.1518 122.474 55.0625 123.723 54.823C131.988 53.2367 140.242 51.5836 148.505 49.9879C150.36 49.6295 152.239 49.3962 154.11 49.1278C157.511 48.6401 158.28 47.5179 157.787 44.0984C157.404 41.444 156.111 39.5057 153.949 37.9841C149.788 35.0547 145.712 32.005 142.169 28.3169C141.459 27.5776 140.855 26.7375 140.173 25.9691C139.384 25.0786 138.755 25.1699 138.342 26.3473C137.425 28.9562 137.578 29.4912 140.256 32.9372Z" fill="#FFA849"/>
</svg>
