<svg width="85" height="90" viewBox="0 0 85 90" fill="none" xmlns="http://www.w3.org/2000/svg">
<path fill-rule="evenodd" clip-rule="evenodd" d="M34 45C34 53.1706 43.3762 57.7875 49.8525 52.8058C54.9773 48.8637 54.9773 41.1363 49.8525 37.1942C43.3762 32.2125 34 36.8294 34 45ZM42.5 0C19.04 0 0 20.16 0 45C0 69.84 19.04 90 42.5 90C65.96 90 85 69.84 85 45C85 20.16 65.96 0 42.5 0ZM42 81C23.2575 81 8 64.845 8 45C8 25.155 23.2575 9 42 9C60.7425 9 76 25.155 76 45C76 64.845 60.7425 81 42 81Z" fill="white"/>
</svg>
