<svg width="21" height="22" viewBox="0 0 21 22" fill="none" xmlns="http://www.w3.org/2000/svg">
<g clip-path="url(#clip0_233_6019)">
<path fill-rule="evenodd" clip-rule="evenodd" d="M9.67717 5.17724C10.0536 5.78692 10.243 6.51306 10.243 7.36114C10.243 8.23388 10.0536 8.93673 9.67243 9.46695C9.457 9.76425 9.14332 10.0369 8.72785 10.2821C9.35876 10.5493 9.83342 10.9699 10.1566 11.5454C10.4773 12.1194 10.6371 12.8195 10.6371 13.6416C10.6371 14.4883 10.4549 15.25 10.0867 15.9214C9.85354 16.3667 9.56117 16.7434 9.21198 17.0476C8.81781 17.397 8.3538 17.6353 7.8164 17.7655C7.27901 17.8957 6.69781 17.9587 6.06927 17.9587H0.5V3.65234H6.47291C7.98094 3.67975 9.04744 4.18667 9.67717 5.17724ZM2.96445 6.13766V9.29432H5.96984C6.50487 9.29432 6.94165 9.17512 7.27782 8.9381C7.61044 8.70245 7.77971 8.2832 7.77971 7.68311C7.77971 7.01588 7.55836 6.57609 7.11566 6.36098C6.73332 6.21302 6.24683 6.13766 5.65498 6.13766H2.96445ZM2.96445 11.6604V15.4747H5.96511C6.50132 15.4747 6.91916 15.3912 7.21745 15.224C7.75959 14.9116 8.02947 14.317 8.02947 13.4388C8.02947 12.6921 7.76906 12.1824 7.2435 11.9029C6.94876 11.7481 6.53683 11.6659 6.00772 11.6604H2.96445ZM18.1098 7.59542C18.749 7.92561 19.2745 8.44761 19.6877 9.16005C20.0653 9.78892 20.3079 10.5178 20.418 11.3467C20.4819 11.8331 20.5091 12.5332 20.4973 13.447H13.839C13.8781 14.5088 14.1941 15.2528 14.7955 15.6789C15.1612 15.9447 15.6004 16.0762 16.1141 16.0762C16.6562 16.0762 17.1001 15.9159 17.4398 15.5926C17.6268 15.4172 17.7902 15.1747 17.9322 14.8637H20.3718C20.3079 15.4912 20.012 16.1283 19.4864 16.7777C18.6685 17.8052 17.5215 18.319 16.049 18.319C14.8321 18.319 13.7574 17.8861 12.8305 17.0174C11.8978 16.1502 11.435 14.7376 11.435 12.7839C11.435 10.9494 11.854 9.54504 12.692 8.56544C13.5325 7.58994 14.6215 7.09946 15.9602 7.09946C16.7556 7.09946 17.473 7.26386 18.1098 7.59542ZM14.535 9.98484C14.1977 10.3876 13.9846 10.9343 13.8982 11.6221H18.0163C17.9737 10.8877 17.7594 10.3315 17.3806 9.95058C16.9971 9.57107 16.5248 9.38063 15.9614 9.38063C15.3494 9.38063 14.8724 9.58203 14.535 9.98484ZM13.2803 6.10067H18.5762V4.32094H13.2803V6.10067Z" fill="black"/>
</g>
<defs>
<clipPath id="clip0_233_6019">
<rect width="20" height="22" fill="white" transform="translate(0.5)"/>
</clipPath>
</defs>
</svg>
