<svg width="21" height="20" viewBox="0 0 21 20" fill="none" xmlns="http://www.w3.org/2000/svg">
<g clip-path="url(#clip0_233_6023)">
<circle cx="10.4999" cy="10" r="9.6" fill="black" fill-opacity="0.49"/>
<path fill-rule="evenodd" clip-rule="evenodd" d="M10.5 0C4.9794 0 0.5 4.4794 0.5 10C0.5 15.5206 4.9794 20 10.5 20C16.0098 20 20.5 15.5206 20.5 10C20.5 4.4794 16.0098 0 10.5 0ZM17.1052 4.60954C18.2983 6.0629 19.0141 7.91758 19.0358 9.92408C18.7538 9.86984 15.9338 9.29502 13.0922 9.65292C13.0271 9.51194 12.9729 9.36008 12.9078 9.20824C12.7343 8.7961 12.539 8.3731 12.3438 7.9718C15.4892 6.69198 16.9208 4.84816 17.1052 4.60954ZM10.5 1.47505C12.6692 1.47505 14.654 2.2885 16.1616 3.62256C16.0098 3.83948 14.7191 5.564 11.6822 6.70282C10.2831 4.13232 8.7321 2.0282 8.4935 1.70282C9.1334 1.55097 9.80586 1.47505 10.5 1.47505ZM6.8666 2.27766C7.09436 2.58134 8.6128 4.69632 10.0336 7.21258C6.0423 8.27548 2.51736 8.2538 2.13774 8.2538C2.69088 5.60738 4.48048 3.40564 6.8666 2.27766ZM1.95336 10.0108C1.95336 9.92408 1.95336 9.83732 1.95336 9.75054C2.32213 9.76138 6.4653 9.81562 10.7278 8.5358C10.9772 9.01302 11.205 9.50108 11.4219 9.98916C11.3134 10.0217 11.1941 10.0542 11.0857 10.0868C6.68222 11.5076 4.33948 15.3905 4.14426 15.7158C2.7885 14.2082 1.95336 12.2017 1.95336 10.0108ZM10.5 18.5466C8.52604 18.5466 6.7039 17.8742 5.26138 16.7462C5.41324 16.4317 7.1486 13.0911 11.9642 11.41C11.9859 11.3991 11.9967 11.3991 12.0184 11.3883C13.2223 14.5011 13.7104 17.115 13.8406 17.8633C12.8102 18.308 11.6822 18.5466 10.5 18.5466ZM15.2614 17.0824C15.1746 16.5618 14.7191 14.0672 13.602 10.9978C16.2809 10.5748 18.6236 11.269 18.9165 11.3666C18.5477 13.7419 17.1811 15.7918 15.2614 17.0824Z" fill="black"/>
</g>
<defs>
<clipPath id="clip0_233_6023">
<rect width="20" height="20" fill="white" transform="translate(0.5)"/>
</clipPath>
</defs>
</svg>
