<svg width="20" height="20" viewBox="0 0 20 20" fill="none" xmlns="http://www.w3.org/2000/svg">
<path d="M18.5183 0.00149131H1.47582C0.670359 -0.00759854 0.00983024 0.637609 0 1.44308V18.5566C0.00949368 19.3625 0.669969 20.0083 1.47582 19.9999H18.5183C19.3258 20.0099 19.9888 19.3641 20 18.5566V1.44185C19.9885 0.634783 19.3254 -0.0103876 18.5183 0.000126709" fill="black"/>
<path d="M14.1001 17H16.9988L17 11.87C17 9.35165 16.4583 7.41582 13.5204 7.41582C12.3972 7.37405 11.3422 7.95451 10.7748 8.92637H10.7358V7.64842H7.95311V16.9997H10.8518V12.3737C10.8518 11.1538 11.0828 9.97232 12.5925 9.97232C14.0808 9.97232 14.1001 11.3682 14.1001 12.4526V17Z" fill="white"/>
<path d="M3 4.68538C3.00017 5.61603 3.75342 6.37033 4.68244 6.37016C5.12857 6.37008 5.5564 6.19247 5.8718 5.8764C6.18721 5.56033 6.36435 5.13169 6.36427 4.68478C6.36411 3.75413 5.61085 2.99983 4.68184 3C3.75282 3.00017 2.99983 3.75474 3 4.68538Z" fill="white"/>
<path d="M3.23008 17H6.13178V7.64842H3.23008V17Z" fill="white"/>
</svg>
