<svg width="15" height="16" viewBox="0 0 15 16" fill="none" xmlns="http://www.w3.org/2000/svg">
<path d="M14 12.6145C14 12.8485 13.9479 13.089 13.8373 13.323C13.7266 13.557 13.5834 13.778 13.3946 13.986C13.0756 14.337 12.7241 14.5905 12.327 14.753C11.9364 14.9155 11.5133 15 11.0576 15C10.3936 15 9.68403 14.844 8.9354 14.5255C8.18678 14.207 7.43816 13.778 6.69604 13.2385C5.94742 12.6925 5.23786 12.088 4.56084 11.4185C3.89034 10.7425 3.28493 10.034 2.74462 9.293C2.21082 8.552 1.78117 7.811 1.4687 7.0765C1.15623 6.3355 1 5.627 1 4.951C1 4.509 1.07812 4.0865 1.23435 3.6965C1.39059 3.3 1.63796 2.936 1.98297 2.611C2.3996 2.2015 2.85528 2 3.33701 2C3.51928 2 3.70155 2.039 3.8643 2.117C4.03355 2.195 4.18328 2.312 4.30045 2.481L5.81072 4.6065C5.92789 4.769 6.01252 4.9185 6.07111 5.0615C6.12969 5.198 6.16224 5.3345 6.16224 5.458C6.16224 5.614 6.11668 5.77 6.02554 5.9195C5.94091 6.069 5.81723 6.225 5.66099 6.381L5.16625 6.8945C5.09464 6.966 5.06209 7.0505 5.06209 7.1545C5.06209 7.2065 5.0686 7.252 5.08162 7.304C5.10115 7.356 5.12068 7.395 5.1337 7.434C5.25088 7.6485 5.45268 7.928 5.73911 8.266C6.03205 8.604 6.34452 8.9485 6.68302 9.293C7.03455 9.6375 7.37306 9.956 7.71808 10.2485C8.05658 10.5345 8.3365 10.7295 8.55784 10.8465C8.59039 10.8595 8.62944 10.879 8.67501 10.8985C8.72709 10.918 8.77917 10.9245 8.83776 10.9245C8.94842 10.9245 9.03305 10.8855 9.10466 10.814L9.5994 10.3265C9.76214 10.164 9.91838 10.0405 10.0681 9.9625C10.2178 9.8715 10.3676 9.826 10.5303 9.826C10.654 9.826 10.7842 9.852 10.9274 9.9105C11.0706 9.969 11.2203 10.0535 11.3831 10.164L13.5378 11.6915C13.7071 11.8085 13.8242 11.945 13.8958 12.1075C13.9609 12.27 14 12.4325 14 12.6145Z" stroke="#4C1D95" stroke-width="1.2" stroke-miterlimit="10"/>
<path d="M11 6C11 5.65714 10.7314 5.13143 10.3314 4.70286C9.96571 4.30857 9.48 4 9 4" stroke="#4C1D95" stroke-width="1.2" stroke-linecap="round" stroke-linejoin="round"/>
<path d="M14 7C14 4.23571 11.7643 2 9 2" stroke="#4C1D95" stroke-width="1.2" stroke-linecap="round" stroke-linejoin="round"/>
</svg>
