<svg width="21" height="20" viewBox="0 0 21 20" fill="none" xmlns="http://www.w3.org/2000/svg">
<path d="M18.4525 5.82876C18.4647 6.00958 18.4647 6.1904 18.4647 6.37289C18.4647 11.9333 14.3371 18.3462 6.78966 18.3462V18.3428C4.56013 18.3462 2.3769 17.6912 0.5 16.4563C0.824193 16.4963 1.15001 16.5163 1.47664 16.5171C3.32429 16.5188 5.11913 15.883 6.57272 14.7123C4.81688 14.6781 3.27717 13.504 2.73928 11.79C3.35436 11.9116 3.98812 11.8866 4.59181 11.7175C2.67753 11.3208 1.30033 9.59598 1.30033 7.59279C1.30033 7.57446 1.30033 7.55696 1.30033 7.53947C1.87071 7.86527 2.50934 8.04609 3.1626 8.06609C1.35964 6.83035 0.80388 4.37054 1.89265 2.44735C3.97593 5.07632 7.04966 6.67453 10.3493 6.84368C10.0186 5.38213 10.4703 3.85058 11.5364 2.82315C13.189 1.22994 15.7882 1.3116 17.3418 3.00564C18.2607 2.81982 19.1415 2.47401 19.9475 1.98405C19.6412 2.95814 19.0001 3.78558 18.1437 4.31137C18.957 4.21305 19.7517 3.98973 20.5 3.64892C19.9491 4.49553 19.2552 5.23297 18.4525 5.82876Z" fill="black"/>
</svg>
