<svg width="20" height="20" viewBox="0 0 20 20" fill="none" xmlns="http://www.w3.org/2000/svg">
<path d="M19.9903 5.33817C19.9013 7.28878 18.5415 9.9598 15.9115 13.3498C13.1923 16.891 10.8917 18.6615 9.00966 18.6615C7.84425 18.6615 6.85724 17.5834 6.05164 15.4266C5.51324 13.4496 4.97543 11.4728 4.43723 9.4958C3.83862 7.34018 3.19682 6.26098 2.51062 6.26098C2.36102 6.26098 1.83741 6.57638 0.941006 7.20478L0 5.99017C0.987006 5.12117 1.96081 4.25236 2.91882 3.38236C4.23523 2.24255 5.22343 1.64315 5.88204 1.58255C7.43865 1.43275 8.39665 2.49875 8.75626 4.78077C9.14486 7.24278 9.41366 8.77419 9.56486 9.3736C10.0135 11.4162 10.5071 12.4362 11.0465 12.4362C11.4651 12.4362 12.0939 11.7738 12.9323 10.449C13.7699 9.12379 14.2185 8.11559 14.2791 7.42298C14.3983 6.27938 13.9495 5.70617 12.9323 5.70617C12.4535 5.70617 11.9599 5.81657 11.4521 6.03477C12.4349 2.80895 14.3129 1.24234 17.0849 1.33174C19.1399 1.39215 20.1087 2.72755 19.9903 5.33817Z" fill="black"/>
</svg>
