<svg width="24" height="19" viewBox="0 0 24 19" fill="none" xmlns="http://www.w3.org/2000/svg">
<path fill-rule="evenodd" clip-rule="evenodd" d="M23.4984 2.96666C23.2224 1.79903 22.4093 0.879185 21.3767 0.567057C19.505 0 11.9999 0 11.9999 0C11.9999 0 4.49498 0 2.62334 0.567057C1.59071 0.879185 0.777578 1.79903 0.501593 2.96666C0 5.08363 0 9.49989 0 9.49989C0 9.49989 0 13.9164 0.501593 16.0331C0.777578 17.2007 1.59071 18.1208 2.62334 18.4327C4.49498 19 11.9999 19 11.9999 19C11.9999 19 19.505 19 21.3767 18.4327C22.4093 18.1208 23.2224 17.2007 23.4984 16.0331C24 13.9164 24 9.49989 24 9.49989C24 9.49989 24 5.08363 23.4984 2.96666Z" fill="black"/>
<path fill-rule="evenodd" clip-rule="evenodd" d="M10 13L16 9.00022L10 5V13Z" fill="#FFFFFE"/>
</svg>
