<svg width="94" height="30" viewBox="0 0 94 30" fill="none" xmlns="http://www.w3.org/2000/svg">
<path d="M12.0696 23.2734C15.6091 23.2734 18.2763 22.1405 20.3643 20.0118C22.5136 17.9068 23.1809 14.9598 23.1809 12.5757C23.1809 11.8354 23.1228 11.1566 23.0068 10.5866H12.0696V13.7654H19.8444C19.6123 15.5535 19.0007 16.859 18.0761 17.7673C16.9427 18.8718 15.1749 20.0946 12.0696 20.0946C7.28331 20.0946 3.53999 16.3198 3.53999 11.6367C3.53999 6.95364 7.28331 3.17644 12.0696 3.17644C14.6498 3.17644 16.5387 4.17219 17.9289 5.44939L20.2216 3.20719C18.2763 1.39309 15.6962 0 12.0696 0C5.51162 0 0 5.21996 0 11.6367C0 18.0511 5.51162 23.2734 12.0696 23.2734ZM32.0321 23.2734C36.2654 23.2734 39.7179 20.0946 39.7179 15.7781C39.7179 11.438 36.2654 8.28761 32.0321 8.28761C27.7914 8.28761 24.3389 11.438 24.3389 15.7781C24.3389 20.0946 27.7914 23.2734 32.0321 23.2734ZM32.0321 20.3217C29.7086 20.3217 27.7044 18.4484 27.7044 15.7781C27.7044 13.0842 29.7086 11.2417 32.0321 11.2417C34.3506 11.2417 36.3525 13.0842 36.3525 15.7781C36.3525 18.4484 34.3506 20.3217 32.0321 20.3217ZM48.7988 23.2734C53.0346 23.2734 56.487 20.0946 56.487 15.7781C56.487 11.438 53.0346 8.28761 48.7988 8.28761C44.5605 8.28761 41.1081 11.438 41.1081 15.7781C41.1081 20.0946 44.5605 23.2734 48.7988 23.2734ZM48.7988 20.3217C46.4778 20.3217 44.4735 18.4484 44.4735 15.7781C44.4735 13.0842 46.4778 11.2417 48.7988 11.2417C51.1198 11.2417 53.1216 13.0842 53.1216 15.7781C53.1216 18.4484 51.1198 20.3217 48.7988 20.3217ZM65.2778 30C69.221 30 72.5623 27.7318 72.5623 22.1949V8.74172H69.3685V9.96216H69.2525C68.4957 9.08231 67.0451 8.28761 65.2222 8.28761C61.3901 8.28761 57.882 11.5799 57.882 15.8089C57.882 20.0118 61.3901 23.2734 65.2222 23.2734C67.0451 23.2734 68.4957 22.4787 69.2525 21.5705H69.3685V22.649C69.3685 25.518 67.8018 27.0483 65.2778 27.0483C63.2203 27.0483 61.9414 25.6031 61.4167 24.378L58.4889 25.5724C59.3327 27.5615 61.5642 30 65.2778 30ZM65.5075 20.3217C63.1889 20.3217 61.2426 18.4224 61.2426 15.8089C61.2426 13.1693 63.1889 11.2417 65.5075 11.2417C67.8019 11.2417 69.6006 13.1693 69.6006 15.8089C69.6006 18.4224 67.8019 20.3217 65.5075 20.3217ZM78.2463 0.794702H74.8809V22.8193H78.2463V0.794702ZM87.4722 23.2734C90.9803 23.2734 93.0136 21.1755 93.8549 19.9527L91.2414 18.2521C90.3735 19.4962 89.184 20.3217 87.4722 20.3217C85.7605 20.3217 84.5396 19.5553 83.7586 18.0511L94 13.9049L93.6518 13.0558C93.0136 11.3813 91.0673 8.28761 87.0951 8.28761C83.1494 8.28761 79.871 11.3269 79.871 15.7781C79.871 19.9811 83.1204 23.2734 87.4722 23.2734ZM83.2074 15.5535C83.1204 12.6608 85.4994 11.1826 87.2111 11.1826C88.5457 11.1826 89.6772 11.8354 90.0567 12.772L83.2074 15.5535Z" fill="#17313B"/>
</svg>
